# xmcd CD database file
#
# Track frame offsets:
#	150
#	19655
#	36975
#
# Disc length: 749 seconds
#
# Revision: 0
# Processed by: cddbd v1.5PL3 Copyright (c) Steve Scherf et al.
# Submitted via: CDex 1.50beta9
#
DISCID=1c02eb03
DTITLE=セブンHOUSE - 奇跡の雨
DYEAR=2001
DGENRE=Rock
TTITLE0=奇跡の雨
TTITLE1=曖昧LOVE
TTITLE2=奇跡の雨(Instrumental)
EXTD=YEAR: 2001
EXTT0=
EXTT1=
EXTT2=
PLAYORDER=
